<svg width="520" height="489" viewBox="0 0 520 489" fill="none" xmlns="http://www.w3.org/2000/svg">
<path d="M410.998 488.67C470.935 488.67 519.523 475.583 519.523 459.44C519.523 443.297 470.935 430.211 410.998 430.211C351.062 430.211 302.474 443.297 302.474 459.44C302.474 475.583 351.062 488.67 410.998 488.67Z" fill="#ECECEC"/>
<path d="M364.602 393.635C350.454 410.654 333.587 425.215 314.685 436.727C308.795 440.251 302.705 443.428 296.445 446.242C253.262 465.653 204.044 466.914 158.019 455.758C61.2404 432.304 9.89476 346.88 3.37396 252.047C1.62596 226.42 -2.29565 198.741 8.08595 174.36C18.4676 149.979 39.4587 134.84 63.2011 124.322C80.4379 116.646 99.0579 111.493 115.976 107.282C146.592 99.7191 178.886 103.051 207.312 116.706C227.209 126.146 241.376 142.546 258.111 156.363C259.884 157.822 261.668 159.277 263.461 160.726C280.366 174.333 298.137 186.828 316.661 198.133C344.796 215.294 373.6 231.482 391.582 260.301C420.264 306.235 396.066 356.243 364.602 393.635Z" fill="#92E3A9"/>
<path opacity="0.4" d="M364.602 393.635C350.454 410.654 333.587 425.215 314.685 436.727C308.795 440.251 302.705 443.428 296.445 446.242C253.262 465.653 204.044 466.914 158.019 455.758C61.2404 432.304 9.89476 346.88 3.37396 252.047C1.62596 226.42 -2.29565 198.741 8.08595 174.36C18.4676 149.979 39.4587 134.84 63.2011 124.322C80.4379 116.646 99.0579 111.493 115.976 107.282C146.592 99.7191 178.886 103.051 207.312 116.706C227.209 126.146 241.376 142.546 258.111 156.363C259.884 157.822 261.668 159.277 263.461 160.726C280.366 174.333 298.137 186.828 316.661 198.133C344.796 215.294 373.6 231.482 391.582 260.301C420.264 306.235 396.066 356.243 364.602 393.635Z" fill="white"/>
<path d="M263.401 160.726C261.607 159.287 259.823 157.827 258.05 156.348C241.33 142.501 227.133 126.146 207.252 116.706C178.823 103.059 146.531 99.7268 115.915 107.282C75.6805 117.269 25.7789 132.651 7.99494 174.375C-2.38666 198.695 1.53493 226.42 3.29813 252.047C9.89493 346.88 61.2405 432.304 158.019 455.758C210.672 468.526 267.459 465.03 314.685 436.727C333.587 425.215 350.454 410.654 364.602 393.635C396.066 356.243 420.265 306.235 391.613 260.301C373.646 231.421 344.842 215.294 316.692 198.133C298.136 186.831 280.335 174.336 263.401 160.726V160.726Z" stroke="#263238" stroke-width="1.52" stroke-miterlimit="10"/>
<path d="M116.797 329.826C108.739 332.264 100.92 335.429 93.4344 339.28" stroke="#263238" stroke-width="1.52" stroke-linecap="round" stroke-linejoin="round"/>
<path d="M166.121 320.432C154.35 321.451 142.668 323.305 131.161 325.98" stroke="#263238" stroke-width="1.52" stroke-linecap="round" stroke-linejoin="round"/>
<path d="M155.86 318C155.86 318 110.443 291.582 55.6317 312.756" stroke="#263238" stroke-width="1.52" stroke-linecap="round" stroke-linejoin="round"/>
<path opacity="0.1" d="M364.603 393.635C350.454 410.654 333.588 425.215 314.686 436.727C308.796 440.251 302.706 443.428 296.446 446.242C291.504 444.729 286.648 442.948 281.899 440.907C253.536 428.747 229.733 408.182 206.477 387.905C192.447 375.745 178.19 363.281 161.394 355.27C138.681 344.531 112.841 342.403 88.677 349.282C101.175 335.176 118.166 325.826 136.77 322.818C124.762 311.89 108.057 307.299 91.8234 307.01C75.5898 306.722 66.6522 308.713 50.7834 312.27C56.0882 302.511 70.1634 293.68 81.2746 293.938C70.712 293.798 60.1661 293.052 49.689 291.704C35.3554 289.394 28.941 272.522 26.7978 258.173C20.8698 218.653 26.8738 176.564 48.4426 142.972C52.7128 136.272 57.6528 130.023 63.1866 124.322C80.4234 116.646 99.0434 111.493 115.961 107.282C146.577 99.7191 178.871 103.051 207.298 116.706C227.195 126.146 241.361 142.546 258.096 156.363C259.87 157.822 261.653 159.277 263.447 160.726C280.352 174.333 298.123 186.828 316.647 198.133C344.782 215.294 373.586 231.482 391.567 260.301C420.265 306.235 396.067 356.243 364.603 393.635Z" fill="black"/>
<path d="M380.44 392.48C388.963 399.565 397.879 406.162 407.147 412.24C425.22 413.456 417.118 435.298 417.118 435.298L401.645 445.254C401.645 445.254 375.151 424.202 360.68 417.378C346.21 410.553 380.44 392.48 380.44 392.48Z" fill="white"/>
<path opacity="0.3" d="M252.016 162.504C252.016 162.504 249.538 137.986 245.586 131.101L185.577 118.88V114.229C185.577 114.229 186.96 106.142 173.584 101.081C160.208 96.0192 132.331 102.601 125.141 108.042C117.952 113.484 120.581 122.847 120.581 122.847C120.581 122.847 96.4135 135.053 85.5607 139.704C76.6766 143.803 68.0157 148.369 59.6143 153.384C59.6143 153.384 54.6895 209.746 55.6623 222.833C56.6351 235.92 54.8719 248.232 55.9967 255.482C57.1215 262.733 58.0031 266.852 65.6031 273.023C73.2031 279.194 80.1191 288.223 100.046 279.27L97.2647 277.066L228.441 232.88L252.016 162.504Z" fill="black"/>
<path d="M252.016 162.504C252.016 162.504 249.538 137.986 245.586 131.101L185.577 118.88V114.229C185.577 114.229 186.96 106.142 173.584 101.081C160.208 96.0192 132.331 102.601 125.141 108.042C117.952 113.484 120.581 122.847 120.581 122.847C120.581 122.847 96.4135 135.053 85.5607 139.704C76.6766 143.803 68.0157 148.369 59.6143 153.384C59.6143 153.384 54.6895 209.746 55.6623 222.833C56.6351 235.92 54.8719 248.232 55.9967 255.482C57.1215 262.733 58.0031 266.852 65.6031 273.023C73.2031 279.194 80.1191 288.223 100.046 279.27L97.2647 277.066L228.441 232.88L252.016 162.504Z" fill="#92E3A9"/>
<path opacity="0.05" d="M252.016 162.504C252.016 162.504 249.538 137.986 245.586 131.101L185.577 118.88V114.229C185.577 114.229 186.96 106.142 173.584 101.081C160.208 96.0192 132.331 102.601 125.141 108.042C117.952 113.484 120.581 122.847 120.581 122.847C120.581 122.847 96.4135 135.053 85.5607 139.704C76.6766 143.803 68.0157 148.369 59.6143 153.384C59.6143 153.384 54.6895 209.746 55.6623 222.833C56.6351 235.92 54.8719 248.232 55.9967 255.482C57.1215 262.733 58.0031 266.852 65.6031 273.023C73.2031 279.194 80.1191 288.223 100.046 279.27L97.2647 277.066L228.441 232.88L252.016 162.504Z" fill="black"/>
<path opacity="0.1" d="M246.377 134.08H221.267C218.905 134.084 216.622 134.924 214.822 136.452C213.021 137.98 211.82 140.096 211.432 142.425L199.059 216.905C199.059 216.905 182.02 218.318 169.951 227.119C157.883 235.92 128.197 173.129 81.2898 173.098C81.2898 173.098 94.7874 203.954 97.7818 228.578C97.7818 228.578 68.461 225.386 63.597 236.862C58.733 248.338 65.801 269.846 78.2042 261.517C90.6074 253.187 102.281 239.294 110.565 248.08C118.849 256.866 155.861 261.593 155.861 261.593L212.815 232.88L234.901 222.498L246.377 134.08Z" fill="black"/>
<path opacity="0.4" d="M166.653 97.1592C166.653 97.1592 180.91 101.111 183.221 105.899C185.531 110.687 185.288 122.802 185.288 122.802C181.828 130.898 176.586 138.11 169.951 143.899L159.311 122.802L160.269 146.726C160.269 146.726 140.083 143.367 131.51 136.922L122.953 130.462C122.953 130.462 119.259 118.302 119.791 114.183C120.323 110.064 135.721 101.704 135.721 101.704L166.653 97.1592Z" fill="white"/>
<path d="M404.137 466.078C403.742 465.212 409.989 454.177 405.095 442.944C400.2 431.711 392.403 436.043 392.403 436.043C392.403 436.043 370.196 421.907 360.863 417.438C354.139 414.061 347.662 410.211 341.483 405.917L331.618 419.202L340.738 447.413L404.137 466.078Z" fill="#92E3A9"/>
<path d="M391.598 435.359L420.113 452.778C420.113 452.778 440.162 439.919 449.723 431.042C459.284 422.166 480.761 403.257 480.761 403.257L494.441 384.85C494.441 384.85 484.956 373.115 469.148 382.539C448.72 394.699 423.807 412.362 407.193 412.194C407.193 412.194 410.461 432.608 391.704 435.359" fill="#92E3A9"/>
<path d="M161.819 23.4696C161.819 23.4696 174.755 43.0472 177.111 49.3856C179.467 55.724 181.367 65.1024 180.895 69.6168C180.424 74.1312 175.682 98.3144 173.295 99.0136L171 101.613L172.52 111.858C172.52 111.858 162.397 129.353 132.635 116.524C132.635 116.524 131.48 96.0952 127.863 89.6808C124.245 83.2664 118.834 90.8968 113.407 72.368C107.981 53.8392 125.263 34.368 125.263 34.368L161.819 23.4696Z" fill="white"/>
<path opacity="0.5" d="M482.022 379.134C482.022 379.134 467.354 381.688 462.597 390.367C457.839 399.046 448.704 415.174 445.588 422.971C442.472 430.769 416.708 449.602 416.708 449.602L420.128 452.778C420.128 452.778 441.104 439.813 453.766 427.486C466.427 415.158 494.35 384.15 494.35 384.15C494.35 384.15 492.343 382.159 482.022 379.134Z" fill="white"/>
<path opacity="0.5" d="M335.251 414.322L331.618 419.202L342.775 442.336L404.137 464.391L406.98 455.408C406.98 455.408 407.922 446.288 386.384 439.357C364.845 432.426 351.712 427.85 345.587 423.093C339.461 418.335 335.251 414.322 335.251 414.322Z" fill="white"/>
<path d="M132.681 242.502C132.681 242.502 113.894 239.674 105.123 255.042C96.353 270.409 97.2498 277.066 97.2498 277.066C97.2498 277.066 109.668 288.345 126.738 287.706C143.807 287.068 168.659 267.521 176.761 261.152C184.863 254.783 205.291 236.558 219.23 240.328L220.75 227.15C220.75 227.15 219.382 221.237 207.465 222.833C195.548 224.429 190.867 231.223 187.021 231.223C183.175 231.223 179.543 227.53 171.821 240.723C171.806 240.723 144.704 245.526 132.681 242.502Z" fill="white"/>
<path d="M157.092 51.62C157.492 54.0831 158.061 56.5157 158.794 58.9008C159.069 60.0651 159.587 61.1581 160.314 62.108C161.743 63.628 164.053 64.0232 166.166 64.3424C166.515 64.3673 166.846 64.5061 167.109 64.7376C167.279 65.0099 167.359 65.3291 167.337 65.6496C167.324 68.0437 166.605 70.3808 165.269 72.368" stroke="#263238" stroke-width="1.52" stroke-linecap="round" stroke-linejoin="round"/>
<path opacity="0.1" d="M347.852 398.56L335.251 414.262C335.251 414.262 349.083 427.045 363.401 431.787C377.72 436.53 402.784 445.467 406.98 452.353L405.368 444.16C405.368 444.16 366.168 420.114 357.169 414.368C354.509 412.623 352.285 410.29 350.669 407.549C349.054 404.808 348.09 401.733 347.852 398.56Z" fill="black"/>
<path opacity="0.1" d="M391.598 435.359L416.693 449.602C416.693 449.602 429.081 441.12 435.161 434.873C441.241 428.626 448.735 421.694 453.401 407.695C459.77 388.346 478.01 379.134 478.01 379.134C478.01 379.134 452.641 391.082 439.432 400.414C426.224 409.747 413.349 413.699 405.871 413.061C405.795 413.106 411.799 432.106 391.598 435.359Z" fill="black"/>
<path d="M148.246 75.8184C148.246 75.8184 158.111 83.5552 168.355 80.652C168.355 80.652 158.688 99.804 148.246 75.8184Z" fill="white" stroke="#263238" stroke-width="1.52" stroke-linecap="round" stroke-linejoin="round"/>
<path d="M147.881 59.0984C148.17 61.2264 147.516 63.0656 146.452 63.2176C145.388 63.3696 144.278 61.6976 143.99 59.6152C143.701 57.5328 144.339 55.648 145.418 55.496C146.498 55.344 147.653 56.9704 147.881 59.0984Z" fill="#263238"/>
<path d="M169.358 55.2224C169.632 57.3656 168.994 59.2048 167.93 59.3416C166.866 59.4784 165.741 57.8216 165.467 55.7544C165.194 53.6872 165.817 51.772 166.896 51.6352C167.975 51.4984 169.07 53.0944 169.358 55.2224Z" fill="#263238"/>
<path d="M146.361 50.0696C146.361 50.0696 140.615 47.1056 136.526 53.4592" stroke="#263238" stroke-width="1.52" stroke-linecap="round" stroke-linejoin="round"/>
<path d="M161.089 46.1176C161.089 46.1176 167.169 40.904 170.68 46.1176" stroke="#263238" stroke-width="1.52" stroke-linecap="round" stroke-linejoin="round"/>
<path d="M126.844 69.632C126.844 69.632 123.15 64.1752 119.244 64.3424C115.337 64.5096 113.787 69.9816 115.185 75.2712C116.584 80.5608 122.405 87.948 126.813 87.2488C129.3 86.9284 131.568 85.6661 133.152 83.7224" stroke="#263238" stroke-width="1.52" stroke-linecap="round" stroke-linejoin="round"/>
<path d="M162.26 27.8776C166.409 31.328 170.802 35.0824 172.9 40.1592C174.754 44.476 175.165 49.2792 176.867 53.6416C178.676 58.308 180.652 63.1872 180.804 68.2792C180.723 72.9902 180.106 77.6767 178.965 82.248C178.333 86.2116 177.393 90.1198 176.153 93.9368C174.101 99.3936 170.316 102.753 165.239 105.337C161.545 107.222 155.389 109.897 151.392 107.374C149.066 105.854 145.57 101.506 142.667 97.5088" stroke="#263238" stroke-width="1.52" stroke-linecap="round" stroke-linejoin="round"/>
<path d="M126.844 87.2488C126.844 87.2488 133.38 103.27 131.799 114.533" stroke="#263238" stroke-width="1.52" stroke-linecap="round" stroke-linejoin="round"/>
<path d="M125.172 66.9416C126.042 66.2979 126.731 65.4408 127.173 64.4529C127.615 63.4651 127.795 62.38 127.695 61.3024C127.452 58.84 125.75 56.56 126.084 54.0976C126.364 52.9184 126.804 51.783 127.391 50.7232C128.277 48.6783 128.666 46.4533 128.529 44.2293C128.392 42.0053 127.731 39.8452 126.601 37.9248C126.601 37.9248 147.364 38.8976 157.092 32.7112C166.82 26.5248 174.238 10.7016 168.355 3.14719C162.473 -4.40721 151.012 5.89838 142.515 7.03838C134.019 8.17838 103.801 12.9968 98.9826 24.64C94.1642 36.2832 101.506 40.4632 101.734 51.5744C101.962 62.6856 101.962 83.7376 118.575 81.8072C118.575 81.8072 112.359 73.7664 116.675 65.4824C119.609 62.0016 125.172 66.9416 125.172 66.9416Z" fill="#263238"/>
<path d="M165.892 16.28C168.712 18.476 171.049 21.2285 172.759 24.3664C174.469 27.5043 175.516 30.9605 175.833 34.52C176.76 42.8496 191.535 59.0376 180.879 68.264C180.879 68.264 178.402 58.46 176.943 53.6264C175.483 48.7928 173.614 39.9464 171.167 36.9064C168.719 33.8664 155.739 23.2264 155.739 23.2264L165.892 16.28Z" fill="#263238"/>
<path d="M128.759 114.183C128.759 114.183 139.004 120.932 158.034 121.206L160.268 146.726C160.268 146.726 138.867 145.1 122.952 130.462C122.952 130.462 118.651 119.078 119.791 114.183C120.931 109.289 131.16 104.44 131.16 104.44" stroke="#263238" stroke-width="1.52" stroke-linecap="round" stroke-linejoin="round"/>
<path d="M171.805 102.768L172.413 111.888C168.401 116.067 163.481 119.265 158.034 121.236L169.951 143.93C169.951 143.93 184.163 132.864 185.576 121.236C185.576 121.236 185.698 109.334 183.22 105.93C180.743 102.525 171.714 100.929 171.714 100.929" stroke="#263238" stroke-width="1.52" stroke-linecap="round" stroke-linejoin="round"/>
<path opacity="0.8" d="M114.136 32.24C115.656 28.4248 119.821 26.16 123.88 25.552C127.938 24.944 132.103 25.3696 136.207 25.2632C141.89 25.2174 147.455 23.6423 152.319 20.7032C154.735 19.2315 156.838 17.2981 158.508 15.0135C160.177 12.7288 161.379 10.1376 162.047 7.38799" stroke="white" stroke-width="1.52" stroke-linecap="round" stroke-linejoin="round"/>
<path opacity="0.8" d="M104.332 31.4952C106.901 23.6976 115.231 18.8792 123.423 18.1952C127.482 17.8456 131.586 18.3168 135.583 17.8456C139.581 17.3744 143.837 15.7024 145.95 12.2216" stroke="white" stroke-width="1.52" stroke-linecap="round" stroke-linejoin="round"/>
<path d="M100.016 279.27C80.2557 289.515 73.2333 278.966 62.2285 270.242C51.2237 261.517 58.4437 245.922 56.1485 220.918C53.8533 195.914 59.5685 153.384 59.5685 153.384C59.5685 153.384 64.4934 152.259 78.1582 143.899C91.823 135.539 120.581 122.802 120.581 122.802" stroke="#263238" stroke-width="1.52" stroke-linecap="round" stroke-linejoin="round"/>
<path d="M119.593 241.422C119.593 241.422 116.462 231.497 107.616 231.238C98.7695 230.98 84.8159 234.962 74.8751 253.765" stroke="#263238" stroke-width="1.52" stroke-linecap="round" stroke-linejoin="round"/>
<path d="M105.594 230.646C105.044 230.61 104.505 230.481 103.998 230.266C96.7051 227.641 88.7899 227.281 81.289 229.232" stroke="#263238" stroke-width="1.52" stroke-linecap="round" stroke-linejoin="round"/>
<path d="M76.1975 166.958C92.2943 184.742 100.138 208.271 107.57 231.071" stroke="#263238" stroke-width="1.52" stroke-linecap="round" stroke-linejoin="round"/>
<path d="M185.577 118.88C185.577 118.88 214.761 125.842 229.018 127.498C243.276 129.155 245.586 131.146 245.586 131.146L248.246 141.087" stroke="#263238" stroke-width="1.52" stroke-linecap="round" stroke-linejoin="round"/>
<path d="M321.571 136.178L222.178 139.993L214.061 242.213H231.085L317.391 222.894L328.244 138.625L321.571 136.178Z" fill="white"/>
<path d="M219.229 245.238L327.939 141.042L317.391 222.894L219.229 245.238Z" fill="#92E3A9"/>
<path opacity="0.7" d="M219.229 245.238L327.939 141.042L317.391 222.894L219.229 245.238Z" fill="white"/>
<path d="M219.229 242.502L227.923 143.899L328.243 138.625L317.391 222.894L219.229 242.502Z" stroke="#263238" stroke-width="1.52" stroke-linecap="round" stroke-linejoin="round"/>
<path d="M285.957 186.398C285.288 192.402 282.081 196.962 278.798 196.598C275.515 196.233 273.417 191.05 274.086 185.046C274.755 179.042 277.977 174.482 281.26 174.846C284.544 175.211 286.641 180.394 285.957 186.398Z" fill="#263238"/>
<path d="M317.391 222.894C317.391 222.894 363.325 221.586 377.689 231.071C392.053 240.556 400.489 288.117 398.498 313.379C396.507 338.642 379.179 396.614 379.179 396.614L345.982 359.04C345.982 359.04 329.627 299.578 338.549 276.291C338.549 276.291 294.469 278.769 277.111 273.327C277.111 273.327 261.561 247.867 234.9 239.446L317.391 222.894Z" fill="#263238"/>
<path d="M386.186 397.602C374.395 386.595 363.807 374.367 354.6 361.122C338.534 336.301 316.327 312.482 293.481 293.893C275.074 278.966 270.909 254.646 248.2 242.441C210.58 222.27 178.052 262.353 165.892 270.47C153.732 278.586 132.68 287.782 132.68 287.782C132.68 287.782 140.372 316.662 162.959 320.082C185.546 323.502 208.392 307.922 219.199 315.446C230.006 322.97 238.001 356.562 273.691 376.246C302.86 392.328 342.608 408.014 363.112 418.594C367.672 420.965 371.077 423.458 373.661 424.871C380.744 428.732 388.314 433.277 395.458 437.776L420.067 452.763C420.067 452.763 444.767 438.156 454.252 424.689C455.513 422.88 458.143 418.062 460.605 413.41C465.971 403.242 472.765 394.122 482.174 389.09C488.68 385.579 494.471 384.53 494.334 384.166C493.711 383.01 481.916 376.976 473.905 380.274C456.942 387.282 423.031 414.201 407.025 412.194C399.581 408.084 392.595 403.192 386.186 397.602V397.602Z" stroke="#263238" stroke-width="1.52" stroke-miterlimit="10"/>
<path d="M386.186 397.602C371.396 403.576 365.438 412.802 363.158 418.609C342.653 407.969 302.905 392.343 273.736 376.262C238.047 356.502 230.112 322.97 219.244 315.462C208.376 307.953 185.516 323.578 163.004 320.098C140.493 316.617 132.68 287.767 132.68 287.767C132.68 287.767 153.748 278.647 165.908 270.53C178.068 262.414 206.112 222.316 248.2 242.502C271.441 253.643 275.074 278.982 293.481 293.954C316.281 312.482 338.534 336.362 354.6 361.183C363.785 374.426 374.375 386.637 386.186 397.602Z" fill="#263238"/>
<path d="M275.044 268.737C275.044 268.737 263.659 245.602 245.404 241.118" stroke="white" stroke-width="1.52" stroke-linecap="round" stroke-linejoin="round"/>
<path d="M215.369 222.681C202.813 219.945 189.027 233.822 183.221 231.223C178.904 229.293 171.805 240.723 171.805 240.723C160.121 242.41 148.306 243.006 136.511 242.502C119.593 241.422 111.583 244.721 105.594 253.765L97.2343 275.911C97.2343 275.911 119.289 295.671 142.834 284.165C166.379 272.658 197.661 237.942 219.214 238.063" stroke="#263238" stroke-width="1.52" stroke-linecap="round" stroke-linejoin="round"/>
<path d="M390.639 434.766C390.639 434.766 411.251 436.454 406.417 411.83" stroke="#263238" stroke-width="1.52" stroke-miterlimit="10"/>
<path d="M487.768 396.614C486.248 399.654 467.354 415.736 451.075 429.796C451.075 429.583 455.635 420.995 457.52 417.332C461.852 409.246 473.039 387.069 494.334 384.15C497.359 385.974 487.768 396.614 487.768 396.614Z" fill="#263238"/>
<path d="M479.666 379.302C458.128 383.588 453.234 411.222 445.588 422.971C437.942 434.721 416.708 450.696 416.708 450.696" stroke="#263238" stroke-width="1.52" stroke-miterlimit="10"/>
<path d="M405.095 443.643C408.606 450.058 406.949 457.506 405.095 462.172C404.186 464.49 403.056 466.714 401.72 468.814C371.229 463.798 340.738 447.413 340.738 447.413L332.88 423.093L331.618 419.202L343.459 403.257" stroke="#263238" stroke-width="1.52" stroke-miterlimit="10"/>
<path d="M405.095 462.172C404.187 464.49 403.056 466.714 401.721 468.814C371.229 463.798 340.738 447.413 340.738 447.413L332.88 423.093C336.817 428.23 344.113 435.754 355.057 438.84C369.907 443.05 397.313 447.975 405.095 462.172Z" fill="#263238"/>
<path d="M214.061 238.656L222.178 139.993L321.571 136.178L328.244 138.625" stroke="#263238" stroke-width="1.52" stroke-linecap="round" stroke-linejoin="round"/>
<path d="M406.28 422.971C406.28 422.971 419.869 425.403 430.311 416.891C440.754 408.379 457.58 389.121 457.58 389.121" stroke="#263238" stroke-width="1.52" stroke-miterlimit="10"/>
<path d="M420.113 410.72C420.113 410.72 416.829 415.66 420.113 425.57" stroke="#263238" stroke-width="1.52" stroke-linecap="round" stroke-linejoin="round"/>
<path d="M429.749 405.993C428.255 410.919 428.695 416.23 430.98 420.843" stroke="#263238" stroke-width="1.52" stroke-linecap="round" stroke-linejoin="round"/>
<path d="M441.241 399.335C441.241 399.335 438.489 407.589 441.241 414.87" stroke="#263238" stroke-width="1.52" stroke-linecap="round" stroke-linejoin="round"/>
<path d="M346.149 401.205L335.251 414.322C335.251 414.322 346.225 426.315 361.714 431.301C377.203 436.286 404.867 444.753 407.162 453.766" stroke="#263238" stroke-width="1.52" stroke-miterlimit="10"/>
</svg>
