<svg width="652" height="624" viewBox="0 0 652 624" fill="none" xmlns="http://www.w3.org/2000/svg">
<path d="M453.415 18.0216C420.249 36.9912 396.856 68.896 368.508 94.508C333.249 126.239 290.335 148.241 243.99 158.348C205.99 166.571 166.287 166.693 129.67 179.628C58.2305 204.693 9.30169 279.082 8.07049 354.717C6.83929 430.352 49.8705 503.677 113.118 545.142C134.658 559.272 158.239 570.011 183.038 576.986C229.55 590.074 278.874 589.496 326.936 584.495C409.958 575.846 496.994 528.696 549.327 462.226C572.655 432.518 592.371 400.143 608.06 365.782C633.979 309.283 648.7 248.296 651.411 186.194C653.615 132.994 651.411 74.0184 609.2 35.2432C566.99 -3.53199 502.891 -10.296 453.415 18.0216Z" fill="#F9F9F9" fill-opacity="0.02"/>
<path d="M505.998 623.67C565.935 623.67 614.523 610.583 614.523 594.44C614.523 578.297 565.935 565.211 505.998 565.211C446.062 565.211 397.474 578.297 397.474 594.44C397.474 610.583 446.062 623.67 505.998 623.67Z" fill="#ECECEC"/>
<path d="M595.869 392.99H61.3005L1.38214 446.266" stroke="#27AE60" stroke-width="2.10526" stroke-linecap="round" stroke-linejoin="round"/>
<path d="M61.6356 355.69V252.102" stroke="#27AE60" stroke-width="2.10526" stroke-linecap="round" stroke-linejoin="round"/>
<path d="M61.6356 386.971V366.938" stroke="#27AE60" stroke-width="2.10526" stroke-linecap="round" stroke-linejoin="round"/>
<path d="M563.69 140.974C563.69 140.974 563.69 134.712 554.919 125.957C546.149 117.202 540.525 112.186 540.525 112.186C540.525 112.186 536.132 126.58 544.279 135.35C550.264 141.528 556.757 147.193 563.69 152.283V140.974Z" fill="#92E3A9"/>
<path d="M550.967 180.084C550.967 180.084 550.967 173.822 542.197 165.051C533.426 156.281 527.802 151.28 527.802 151.28C527.802 151.28 523.425 165.674 531.557 174.445C537.548 180.62 544.041 186.288 550.967 191.393V180.084Z" fill="#92E3A9"/>
<path d="M563.127 151.645C563.127 151.645 563.796 145.413 573.433 137.615C583.07 129.818 589.21 125.455 589.21 125.455C589.21 125.455 592.038 140.275 583.024 148.088C576.42 153.586 569.368 158.523 561.942 162.847L563.127 151.645Z" fill="#92E3A9"/>
<path d="M547.76 197.822C547.76 197.822 549.082 191.742 559.479 184.963C569.876 178.184 576.427 174.506 576.427 174.506C576.427 174.506 577.689 189.508 567.945 196.378C560.804 201.152 553.274 205.316 545.434 208.827L547.76 197.822Z" fill="#92E3A9"/>
<path d="M550.663 248.15C550.663 248.15 550.663 241.887 559.418 233.132C568.173 224.377 573.812 219.361 573.812 219.361C573.812 219.361 578.205 233.77 570.058 242.526C564.083 248.712 557.595 254.382 550.663 259.474V248.15Z" fill="#92E3A9"/>
<path d="M550.511 260.446C550.511 260.446 551.393 254.245 543.96 244.334C536.527 234.424 531.678 228.648 531.678 228.648C531.678 228.648 525.325 242.328 532.119 252.117C537.17 259.069 542.793 265.588 548.93 271.603L550.511 260.446Z" fill="#92E3A9"/>
<path d="M541.863 296.85C541.863 296.85 541.863 290.603 550.633 281.833C559.404 273.062 565.028 268.153 565.028 268.153C565.028 268.153 569.421 282.547 561.273 291.302C555.29 297.486 548.797 303.155 541.863 308.25V296.85Z" fill="#92E3A9"/>
<path d="M547.714 329.88C547.714 329.88 546.194 323.8 552.411 313.16C558.628 302.52 562.853 296.212 562.853 296.212C562.853 296.212 570.727 309.041 565.088 319.574C560.857 327.061 556.007 334.179 550.587 340.854L547.714 329.88Z" fill="#92E3A9"/>
<path d="M564.48 139.424C564.037 145.938 563.236 152.424 562.078 158.85C558.613 176.755 549.918 188.307 546.483 204.45C543.048 220.592 552.974 241.462 550.314 262.21C547.654 282.958 539.552 294.525 541.832 308.387C544.112 322.25 556.272 359.763 556.272 359.763" stroke="#263238" stroke-width="1.78978" stroke-linecap="round" stroke-linejoin="round"/>
<path d="M563.052 155.81L572.491 148.544" stroke="#263238" stroke-width="1.78978" stroke-linecap="round" stroke-linejoin="round"/>
<path d="M563.477 147.465L559.54 140.427" stroke="#263238" stroke-width="1.78978" stroke-linecap="round" stroke-linejoin="round"/>
<path d="M547.015 203.72C547.015 203.72 554.919 197.777 563.051 191.849" stroke="#263238" stroke-width="1.78978" stroke-linecap="round" stroke-linejoin="round"/>
<path d="M550.967 191.317C550.967 191.317 544.37 178.397 536.907 169.824" stroke="#263238" stroke-width="1.78978" stroke-linecap="round" stroke-linejoin="round"/>
<path d="M550.968 257.057C555.496 248.74 561.205 241.121 567.916 234.439" stroke="#263238" stroke-width="1.78978" stroke-linecap="round" stroke-linejoin="round"/>
<path d="M549.432 265.842C547.008 260.187 544.12 254.742 540.798 249.563C536.238 242.754 535.509 241.872 535.509 241.872" stroke="#263238" stroke-width="1.78978" stroke-linecap="round" stroke-linejoin="round"/>
<path d="M541.863 308.372C543.87 303.395 546.253 298.578 548.992 293.962C551.726 289.665 554.807 285.598 558.203 281.802" stroke="#263238" stroke-width="1.78978" stroke-linecap="round" stroke-linejoin="round"/>
<path d="M550.571 340.778C550.113 336.029 550.932 331.243 552.943 326.916C556.241 320.547 559.965 312.187 561.516 308.904" stroke="#263238" stroke-width="1.78978" stroke-linecap="round" stroke-linejoin="round"/>
<path d="M506.295 224.605C506.295 224.605 505.611 220.698 510.155 214.238C514.7 207.778 517.755 204.024 517.755 204.024C517.755 204.024 522.057 212.566 517.907 218.95C514.825 223.468 511.367 227.719 507.572 231.658L506.295 224.605Z" fill="#92E3A9"/>
<path d="M518.516 247.8C518.516 247.8 517.832 243.863 522.376 237.418C526.921 230.974 529.976 227.219 529.976 227.219C529.976 227.219 534.278 235.777 530.128 242.146C527.049 246.667 523.592 250.918 519.792 254.853L518.516 247.8Z" fill="#92E3A9"/>
<path d="M507.799 231.232C507.799 231.232 506.735 227.402 499.819 223.632C492.903 219.862 488.602 217.704 488.602 217.704C488.602 217.704 488.434 227.234 494.955 231.232C499.691 233.964 504.649 236.293 509.775 238.194L507.799 231.232Z" fill="#92E3A9"/>
<path d="M522.452 258.516C522.452 258.516 520.932 254.822 513.697 251.737C506.462 248.651 501.917 247.025 501.917 247.025C501.917 247.025 502.753 256.555 509.639 259.808C514.638 262.025 519.814 263.82 525.112 265.174L522.452 258.516Z" fill="#92E3A9"/>
<path d="M526.1 290.36C526.1 290.36 525.416 286.438 518.972 281.894C512.527 277.349 508.438 274.81 508.438 274.81C508.438 274.81 507.252 284.341 513.317 288.931C517.737 292.142 522.42 294.974 527.316 297.398L526.1 290.36Z" fill="#92E3A9"/>
<path d="M527.514 298.097C527.514 298.097 526.282 294.312 529.87 287.29C533.457 280.267 535.95 276.118 535.95 276.118C535.95 276.118 541.422 283.961 538.23 290.877C535.796 295.785 532.959 300.483 529.748 304.922L527.514 298.097Z" fill="#92E3A9"/>
<path d="M538.518 329.758C538.518 329.758 538.974 325.806 545.145 320.897C551.317 315.987 555.253 313.297 555.253 313.297C555.253 313.297 556.986 322.721 551.195 327.676C546.965 331.135 542.456 334.236 537.713 336.948L538.518 329.758Z" fill="#92E3A9"/>
<path d="M536.892 320C536.892 320 536.208 316.063 529.764 311.518C523.319 306.974 519.245 304.45 519.245 304.45C519.245 304.45 518.06 313.981 524.109 318.571C528.536 321.78 533.224 324.612 538.124 327.038L536.892 320Z" fill="#92E3A9"/>
<path d="M536.801 341.341C536.801 341.341 537.15 337.358 532.058 331.339C526.966 325.32 523.668 321.809 523.668 321.809C523.668 321.809 520.111 330.701 524.808 336.705C528.277 340.939 532.09 344.879 536.208 348.485L536.801 341.341Z" fill="#92E3A9"/>
<path d="M505.611 223.693C506.6 227.734 507.813 231.718 509.244 235.625C513.348 246.462 520.036 252.77 523.957 262.529C527.879 272.287 523.957 286.438 527.833 299.161C531.709 311.883 538.093 318.222 538.139 327.205C538.185 336.188 534.719 361.01 534.719 361.01" stroke="#263238" stroke-width="1.78978" stroke-linecap="round" stroke-linejoin="round"/>
<path d="M508.301 233.831L501.598 230.32" stroke="#263238" stroke-width="1.78978" stroke-linecap="round" stroke-linejoin="round"/>
<path d="M507.115 228.648L508.832 223.814" stroke="#263238" stroke-width="1.78978" stroke-linecap="round" stroke-linejoin="round"/>
<path d="M523.562 262.118C523.562 262.118 517.953 259.261 512.223 256.418" stroke="#263238" stroke-width="1.78978" stroke-linecap="round" stroke-linejoin="round"/>
<path d="M519.732 254.853C521.38 249.65 523.555 244.628 526.222 239.866" stroke="#263238" stroke-width="1.78978" stroke-linecap="round" stroke-linejoin="round"/>
<path d="M526.875 296.014C523.135 291.292 518.732 287.135 513.803 283.672" stroke="#263238" stroke-width="1.78978" stroke-linecap="round" stroke-linejoin="round"/>
<path d="M528.791 301.365C529.679 297.567 530.884 293.85 532.393 290.254C534.506 285.466 534.871 284.842 534.871 284.842" stroke="#263238" stroke-width="1.78978" stroke-linecap="round" stroke-linejoin="round"/>
<path d="M537.85 333.984C540.025 331.282 542.436 328.78 545.055 326.506C546.722 325.27 548.288 323.903 549.736 322.417" stroke="#263238" stroke-width="1.78978" stroke-linecap="round" stroke-linejoin="round"/>
<path d="M538.139 327.205C536.322 324.305 534.29 321.546 532.059 318.951C529.876 316.567 527.502 314.366 524.96 312.37" stroke="#263238" stroke-width="1.78978" stroke-linecap="round" stroke-linejoin="round"/>
<path d="M536.238 348.485C535.997 345.442 534.947 342.52 533.198 340.018C530.432 336.37 527.118 331.537 525.872 329.637" stroke="#263238" stroke-width="1.78978" stroke-linecap="round" stroke-linejoin="round"/>
<path d="M565.392 403.813H525.477C524.684 403.813 523.922 403.503 523.354 402.949C522.786 402.396 522.457 401.642 522.437 400.849L516.707 356.678H574.041L568.311 400.849C568.292 401.621 567.98 402.358 567.438 402.908C566.896 403.459 566.164 403.782 565.392 403.813Z" fill="#263238"/>
<path d="M573.585 364.141H516.767C515.584 364.145 514.448 363.68 513.608 362.848C512.767 362.016 512.291 360.885 512.283 359.702C512.302 358.522 512.779 357.395 513.612 356.559C514.446 355.722 515.571 355.242 516.752 355.218H573.585C574.173 355.216 574.755 355.331 575.299 355.554C575.843 355.778 576.338 356.107 576.754 356.522C577.171 356.937 577.501 357.43 577.727 357.974C577.952 358.517 578.069 359.099 578.069 359.687C578.067 360.274 577.949 360.855 577.723 361.396C577.496 361.938 577.165 362.429 576.749 362.843C576.333 363.256 575.839 363.584 575.296 363.806C574.753 364.029 574.171 364.143 573.585 364.141Z" fill="#263238"/>
<path d="M459.602 528.635C445.454 545.654 428.587 560.215 409.685 571.727C403.795 575.251 397.705 578.428 391.445 581.242C348.262 600.653 299.044 601.914 253.019 590.758C156.24 567.304 104.895 481.88 98.374 387.047C96.626 361.42 92.7044 333.741 103.086 309.36C113.468 284.979 134.459 269.84 158.201 259.322C175.438 251.646 194.058 246.493 210.976 242.282C241.592 234.719 273.886 238.051 302.312 251.706C322.209 261.146 336.376 277.546 353.111 291.363C354.884 292.822 356.668 294.277 358.461 295.726C375.366 309.333 393.137 321.828 411.661 333.133C439.796 350.294 468.6 366.482 486.582 395.301C515.264 441.235 491.066 491.243 459.602 528.635Z" fill="#92E3A9"/>
<path opacity="0.4" d="M459.602 528.635C445.454 545.654 428.587 560.215 409.685 571.727C403.795 575.251 397.705 578.428 391.445 581.242C348.262 600.653 299.044 601.914 253.019 590.758C156.24 567.304 104.895 481.88 98.374 387.047C96.626 361.42 92.7044 333.741 103.086 309.36C113.468 284.979 134.459 269.84 158.201 259.322C175.438 251.646 194.058 246.493 210.976 242.282C241.592 234.719 273.886 238.051 302.312 251.706C322.209 261.146 336.376 277.546 353.111 291.363C354.884 292.822 356.668 294.277 358.461 295.726C375.366 309.333 393.137 321.828 411.661 333.133C439.796 350.294 468.6 366.482 486.582 395.301C515.264 441.235 491.066 491.243 459.602 528.635Z" fill="white"/>
<path d="M358.401 295.726C356.607 294.287 354.823 292.827 353.05 291.348C336.33 277.501 322.133 261.146 302.252 251.706C273.823 238.059 241.531 234.727 210.915 242.282C170.681 252.269 120.779 267.651 102.995 309.375C92.6133 333.695 96.5349 361.42 98.2981 387.047C104.895 481.88 156.241 567.304 253.019 590.758C305.672 603.526 362.459 600.03 409.685 571.727C428.587 560.215 445.454 545.654 459.602 528.635C491.066 491.243 515.265 441.235 486.613 395.301C468.646 366.421 439.842 350.294 411.692 333.133C393.136 321.831 375.335 309.336 358.401 295.726V295.726Z" stroke="#263238" stroke-width="1.52" stroke-miterlimit="10"/>
<path d="M211.797 464.826C203.739 467.264 195.92 470.429 188.434 474.28" stroke="#263238" stroke-width="1.52" stroke-linecap="round" stroke-linejoin="round"/>
<path d="M261.121 455.432C249.35 456.451 237.668 458.305 226.161 460.98" stroke="#263238" stroke-width="1.52" stroke-linecap="round" stroke-linejoin="round"/>
<path d="M250.86 453C250.86 453 205.443 426.582 150.632 447.756" stroke="#263238" stroke-width="1.52" stroke-linecap="round" stroke-linejoin="round"/>
<path opacity="0.1" d="M459.603 528.635C445.454 545.654 428.588 560.215 409.686 571.727C403.796 575.251 397.706 578.428 391.446 581.242C386.504 579.729 381.648 577.948 376.899 575.907C348.536 563.747 324.733 543.182 301.477 522.905C287.447 510.745 273.19 498.281 256.394 490.27C233.681 479.531 207.841 477.403 183.677 484.282C196.175 470.176 213.166 460.826 231.77 457.818C219.762 446.89 203.057 442.299 186.823 442.01C170.59 441.722 161.652 443.713 145.783 447.27C151.088 437.511 165.163 428.68 176.275 428.938C165.712 428.798 155.166 428.052 144.689 426.704C130.355 424.394 123.941 407.522 121.798 393.173C115.87 353.653 121.874 311.564 143.443 277.972C147.713 271.272 152.653 265.023 158.187 259.322C175.423 251.646 194.043 246.493 210.961 242.282C241.577 234.719 273.871 238.051 302.298 251.706C322.195 261.146 336.361 277.546 353.096 291.363C354.87 292.822 356.653 294.277 358.447 295.726C375.352 309.333 393.123 321.828 411.647 333.133C439.782 350.294 468.586 366.482 486.567 395.301C515.265 441.235 491.067 491.243 459.603 528.635Z" fill="black"/>
<path d="M475.44 527.48C483.963 534.565 492.879 541.162 502.147 547.24C520.22 548.456 512.118 570.298 512.118 570.298L496.645 580.254C496.645 580.254 470.151 559.202 455.68 552.378C441.21 545.553 475.44 527.48 475.44 527.48Z" fill="white"/>
<path opacity="0.3" d="M347.016 297.504C347.016 297.504 344.538 272.986 340.586 266.101L280.577 253.88V249.229C280.577 249.229 281.96 241.142 268.584 236.081C255.208 231.019 227.331 237.601 220.141 243.042C212.952 248.484 215.581 257.847 215.581 257.847C215.581 257.847 191.413 270.053 180.561 274.704C171.677 278.803 163.016 283.369 154.614 288.384C154.614 288.384 149.689 344.746 150.662 357.833C151.635 370.92 149.872 383.232 150.997 390.482C152.121 397.733 153.003 401.852 160.603 408.023C168.203 414.194 175.119 423.223 195.046 414.27L192.265 412.066L323.441 367.88L347.016 297.504Z" fill="black"/>
<path d="M347.016 297.504C347.016 297.504 344.538 272.986 340.586 266.101L280.577 253.88V249.229C280.577 249.229 281.96 241.142 268.584 236.081C255.208 231.019 227.331 237.601 220.141 243.042C212.952 248.484 215.581 257.847 215.581 257.847C215.581 257.847 191.413 270.053 180.561 274.704C171.677 278.803 163.016 283.369 154.614 288.384C154.614 288.384 149.689 344.746 150.662 357.833C151.635 370.92 149.872 383.232 150.997 390.482C152.121 397.733 153.003 401.852 160.603 408.023C168.203 414.194 175.119 423.223 195.046 414.27L192.265 412.066L323.441 367.88L347.016 297.504Z" fill="#92E3A9"/>
<path opacity="0.05" d="M347.016 297.504C347.016 297.504 344.538 272.986 340.586 266.101L280.577 253.88V249.229C280.577 249.229 281.96 241.142 268.584 236.081C255.208 231.019 227.331 237.601 220.141 243.042C212.952 248.484 215.581 257.847 215.581 257.847C215.581 257.847 191.413 270.053 180.561 274.704C171.677 278.803 163.016 283.369 154.614 288.384C154.614 288.384 149.689 344.746 150.662 357.833C151.635 370.92 149.872 383.232 150.997 390.482C152.121 397.733 153.003 401.852 160.603 408.023C168.203 414.194 175.119 423.223 195.046 414.27L192.265 412.066L323.441 367.88L347.016 297.504Z" fill="black"/>
<path opacity="0.1" d="M341.377 269.08H316.267C313.905 269.084 311.622 269.924 309.822 271.452C308.021 272.98 306.82 275.096 306.432 277.425L294.059 351.905C294.059 351.905 277.02 353.318 264.951 362.119C252.883 370.92 223.197 308.129 176.29 308.098C176.29 308.098 189.787 338.954 192.782 363.578C192.782 363.578 163.461 360.386 158.597 371.862C153.733 383.338 160.801 404.846 173.204 396.517C185.607 388.187 197.281 374.294 205.565 383.08C213.849 391.866 250.861 396.593 250.861 396.593L307.815 367.88L329.901 357.498L341.377 269.08Z" fill="black"/>
<path opacity="0.4" d="M261.653 232.159C261.653 232.159 275.91 236.111 278.221 240.899C280.531 245.687 280.288 257.802 280.288 257.802C276.828 265.898 271.586 273.11 264.951 278.899L254.311 257.802L255.269 281.726C255.269 281.726 235.083 278.367 226.51 271.922L217.953 265.462C217.953 265.462 214.259 253.302 214.791 249.183C215.323 245.064 230.721 236.704 230.721 236.704L261.653 232.159Z" fill="white"/>
<path d="M499.137 601.078C498.742 600.212 504.989 589.177 500.095 577.944C495.2 566.711 487.403 571.043 487.403 571.043C487.403 571.043 465.196 556.907 455.863 552.438C449.139 549.061 442.662 545.211 436.483 540.917L426.618 554.202L435.738 582.413L499.137 601.078Z" fill="#92E3A9"/>
<path d="M486.598 570.359L515.113 587.778C515.113 587.778 535.162 574.919 544.723 566.042C554.284 557.166 575.761 538.257 575.761 538.257L589.441 519.85C589.441 519.85 579.956 508.115 564.148 517.539C543.72 529.699 518.807 547.362 502.193 547.194C502.193 547.194 505.461 567.608 486.704 570.359" fill="#92E3A9"/>
<path d="M256.819 158.47C256.819 158.47 269.755 178.047 272.111 184.386C274.467 190.724 276.367 200.102 275.895 204.617C275.424 209.131 270.682 233.314 268.295 234.014L266 236.613L267.52 246.858C267.52 246.858 257.397 264.353 227.635 251.524C227.635 251.524 226.48 231.095 222.863 224.681C219.245 218.266 213.834 225.897 208.407 207.368C202.981 188.839 220.263 169.368 220.263 169.368L256.819 158.47Z" fill="white"/>
<path opacity="0.5" d="M577.022 514.134C577.022 514.134 562.354 516.688 557.597 525.367C552.839 534.046 543.704 550.174 540.588 557.971C537.472 565.769 511.708 584.602 511.708 584.602L515.128 587.778C515.128 587.778 536.104 574.813 548.766 562.486C561.427 550.158 589.35 519.15 589.35 519.15C589.35 519.15 587.343 517.159 577.022 514.134Z" fill="white"/>
<path opacity="0.5" d="M430.251 549.322L426.618 554.202L437.775 577.336L499.137 599.391L501.98 590.408C501.98 590.408 502.922 581.288 481.384 574.357C459.845 567.426 446.712 562.85 440.587 558.093C434.461 553.335 430.251 549.322 430.251 549.322Z" fill="white"/>
<path d="M227.681 377.502C227.681 377.502 208.894 374.674 200.123 390.042C191.353 405.409 192.25 412.066 192.25 412.066C192.25 412.066 204.668 423.345 221.738 422.706C238.807 422.068 263.659 402.521 271.761 396.152C279.863 389.783 300.291 371.558 314.23 375.328L315.75 362.15C315.75 362.15 314.382 356.237 302.465 357.833C290.548 359.429 285.867 366.223 282.021 366.223C278.175 366.223 274.543 362.53 266.821 375.723C266.806 375.723 239.704 380.526 227.681 377.502Z" fill="white"/>
<path d="M252.092 186.62C252.492 189.083 253.061 191.516 253.794 193.901C254.069 195.065 254.587 196.158 255.314 197.108C256.743 198.628 259.053 199.023 261.166 199.342C261.515 199.367 261.846 199.506 262.109 199.738C262.279 200.01 262.359 200.329 262.337 200.65C262.324 203.044 261.605 205.381 260.269 207.368" stroke="#263238" stroke-width="1.52" stroke-linecap="round" stroke-linejoin="round"/>
<path opacity="0.1" d="M442.852 533.56L430.251 549.262C430.251 549.262 444.083 562.045 458.401 566.787C472.72 571.53 497.784 580.467 501.98 587.353L500.368 579.16C500.368 579.16 461.168 555.114 452.169 549.368C449.509 547.623 447.285 545.29 445.669 542.549C444.054 539.808 443.09 536.733 442.852 533.56Z" fill="black"/>
<path opacity="0.1" d="M486.598 570.359L511.693 584.602C511.693 584.602 524.081 576.12 530.161 569.873C536.241 563.626 543.735 556.694 548.401 542.695C554.77 523.346 573.01 514.134 573.01 514.134C573.01 514.134 547.641 526.082 534.432 535.414C521.224 544.747 508.349 548.699 500.871 548.061C500.795 548.106 506.799 567.106 486.598 570.359Z" fill="black"/>
<path d="M243.246 210.818C243.246 210.818 253.111 218.555 263.355 215.652C263.355 215.652 253.688 234.804 243.246 210.818Z" fill="white" stroke="#263238" stroke-width="1.52" stroke-linecap="round" stroke-linejoin="round"/>
<path d="M242.881 194.098C243.17 196.226 242.516 198.066 241.452 198.218C240.388 198.37 239.278 196.698 238.99 194.615C238.701 192.533 239.339 190.648 240.418 190.496C241.498 190.344 242.653 191.97 242.881 194.098Z" fill="#263238"/>
<path d="M264.358 190.222C264.632 192.366 263.994 194.205 262.93 194.342C261.866 194.478 260.741 192.822 260.467 190.754C260.194 188.687 260.817 186.772 261.896 186.635C262.975 186.498 264.07 188.094 264.358 190.222Z" fill="#263238"/>
<path d="M241.361 185.07C241.361 185.07 235.615 182.106 231.526 188.459" stroke="#263238" stroke-width="1.52" stroke-linecap="round" stroke-linejoin="round"/>
<path d="M256.089 181.118C256.089 181.118 262.169 175.904 265.68 181.118" stroke="#263238" stroke-width="1.52" stroke-linecap="round" stroke-linejoin="round"/>
<path d="M221.844 204.632C221.844 204.632 218.15 199.175 214.244 199.342C210.337 199.51 208.787 204.982 210.185 210.271C211.584 215.561 217.405 222.948 221.813 222.249C224.3 221.928 226.568 220.666 228.152 218.722" stroke="#263238" stroke-width="1.52" stroke-linecap="round" stroke-linejoin="round"/>
<path d="M257.26 162.878C261.409 166.328 265.802 170.082 267.9 175.159C269.754 179.476 270.165 184.279 271.867 188.642C273.676 193.308 275.652 198.187 275.804 203.279C275.723 207.99 275.106 212.677 273.965 217.248C273.333 221.212 272.393 225.12 271.153 228.937C269.101 234.394 265.316 237.753 260.239 240.337C256.545 242.222 250.389 244.897 246.392 242.374C244.066 240.854 240.57 236.506 237.667 232.509" stroke="#263238" stroke-width="1.52" stroke-linecap="round" stroke-linejoin="round"/>
<path d="M221.844 222.249C221.844 222.249 228.38 238.27 226.799 249.533" stroke="#263238" stroke-width="1.52" stroke-linecap="round" stroke-linejoin="round"/>
<path d="M220.172 201.942C221.042 201.298 221.731 200.441 222.173 199.453C222.615 198.465 222.795 197.38 222.695 196.302C222.452 193.84 220.75 191.56 221.084 189.098C221.364 187.918 221.804 186.783 222.391 185.723C223.277 183.678 223.666 181.453 223.529 179.229C223.392 177.005 222.731 174.845 221.601 172.925C221.601 172.925 242.364 173.898 252.092 167.711C261.82 161.525 269.238 145.702 263.355 138.147C257.473 130.593 246.012 140.898 237.515 142.038C229.019 143.178 198.801 147.997 193.983 159.64C189.164 171.283 196.506 175.463 196.734 186.574C196.962 197.686 196.962 218.738 213.575 216.807C213.575 216.807 207.359 208.766 211.675 200.482C214.609 197.002 220.172 201.942 220.172 201.942Z" fill="#263238"/>
<path d="M260.892 151.28C263.712 153.476 266.049 156.228 267.759 159.366C269.469 162.504 270.516 165.96 270.833 169.52C271.76 177.85 286.535 194.038 275.879 203.264C275.879 203.264 273.402 193.46 271.943 188.626C270.483 183.793 268.614 174.946 266.167 171.906C263.719 168.866 250.739 158.226 250.739 158.226L260.892 151.28Z" fill="#263238"/>
<path d="M223.759 249.183C223.759 249.183 234.004 255.932 253.034 256.206L255.268 281.726C255.268 281.726 233.867 280.1 217.952 265.462C217.952 265.462 213.651 254.078 214.791 249.183C215.931 244.289 226.16 239.44 226.16 239.44" stroke="#263238" stroke-width="1.52" stroke-linecap="round" stroke-linejoin="round"/>
<path d="M266.805 237.768L267.413 246.888C263.401 251.067 258.481 254.265 253.034 256.236L264.951 278.93C264.951 278.93 279.163 267.864 280.576 256.236C280.576 256.236 280.698 244.334 278.22 240.93C275.743 237.525 266.714 235.929 266.714 235.929" stroke="#263238" stroke-width="1.52" stroke-linecap="round" stroke-linejoin="round"/>
<path opacity="0.8" d="M209.136 167.24C210.656 163.425 214.821 161.16 218.88 160.552C222.938 159.944 227.103 160.37 231.207 160.263C236.89 160.217 242.455 158.642 247.319 155.703C249.735 154.232 251.838 152.298 253.508 150.013C255.177 147.729 256.379 145.138 257.047 142.388" stroke="white" stroke-width="1.52" stroke-linecap="round" stroke-linejoin="round"/>
<path opacity="0.8" d="M199.332 166.495C201.901 158.698 210.231 153.879 218.423 153.195C222.482 152.846 226.586 153.317 230.583 152.846C234.581 152.374 238.837 150.702 240.95 147.222" stroke="white" stroke-width="1.52" stroke-linecap="round" stroke-linejoin="round"/>
<path d="M195.016 414.27C175.256 424.515 168.233 413.966 157.229 405.242C146.224 396.517 153.444 380.922 151.149 355.918C148.853 330.914 154.569 288.384 154.569 288.384C154.569 288.384 159.493 287.259 173.158 278.899C186.823 270.539 215.581 257.802 215.581 257.802" stroke="#263238" stroke-width="1.52" stroke-linecap="round" stroke-linejoin="round"/>
<path d="M214.593 376.422C214.593 376.422 211.462 366.497 202.616 366.238C193.769 365.98 179.816 369.962 169.875 388.765" stroke="#263238" stroke-width="1.52" stroke-linecap="round" stroke-linejoin="round"/>
<path d="M200.594 365.646C200.044 365.61 199.505 365.481 198.998 365.266C191.705 362.641 183.79 362.281 176.289 364.232" stroke="#263238" stroke-width="1.52" stroke-linecap="round" stroke-linejoin="round"/>
<path d="M171.198 301.958C187.294 319.742 195.138 343.271 202.57 366.071" stroke="#263238" stroke-width="1.52" stroke-linecap="round" stroke-linejoin="round"/>
<path d="M280.577 253.88C280.577 253.88 309.761 260.842 324.018 262.498C338.276 264.155 340.586 266.146 340.586 266.146L343.246 276.087" stroke="#263238" stroke-width="1.52" stroke-linecap="round" stroke-linejoin="round"/>
<path d="M416.571 271.178L317.178 274.993L309.061 377.213H326.085L412.391 357.894L423.244 273.625L416.571 271.178Z" fill="white"/>
<path d="M314.229 380.238L422.939 276.042L412.391 357.894L314.229 380.238Z" fill="#92E3A9"/>
<path opacity="0.7" d="M314.229 380.238L422.939 276.042L412.391 357.894L314.229 380.238Z" fill="white"/>
<path d="M314.229 377.502L322.923 278.899L423.243 273.625L412.391 357.894L314.229 377.502Z" stroke="#263238" stroke-width="1.52" stroke-linecap="round" stroke-linejoin="round"/>
<path d="M380.957 321.398C380.288 327.402 377.081 331.962 373.798 331.598C370.515 331.233 368.417 326.05 369.086 320.046C369.755 314.042 372.977 309.482 376.26 309.846C379.544 310.211 381.641 315.394 380.957 321.398Z" fill="#263238"/>
<path d="M412.391 357.894C412.391 357.894 458.325 356.586 472.689 366.071C487.053 375.556 495.489 423.117 493.498 448.379C491.507 473.642 474.179 531.614 474.179 531.614L440.982 494.04C440.982 494.04 424.627 434.578 433.549 411.291C433.549 411.291 389.469 413.769 372.111 408.327C372.111 408.327 356.561 382.867 329.9 374.446L412.391 357.894Z" fill="#263238"/>
<path d="M481.186 532.602C469.395 521.595 458.807 509.367 449.6 496.122C433.534 471.301 411.327 447.482 388.481 428.893C370.074 413.966 365.909 389.646 343.2 377.441C305.58 357.27 273.052 397.353 260.892 405.47C248.732 413.586 227.68 422.782 227.68 422.782C227.68 422.782 235.372 451.662 257.959 455.082C280.546 458.502 303.392 442.922 314.199 450.446C325.006 457.97 333.001 491.562 368.691 511.246C397.86 527.328 437.608 543.014 458.112 553.594C462.672 555.965 466.077 558.458 468.661 559.871C475.744 563.732 483.314 568.277 490.458 572.776L515.067 587.763C515.067 587.763 539.767 573.156 549.252 559.689C550.513 557.88 553.143 553.062 555.605 548.41C560.971 538.242 567.765 529.122 577.174 524.09C583.68 520.579 589.471 519.53 589.334 519.166C588.711 518.01 576.916 511.976 568.905 515.274C551.942 522.282 518.031 549.201 502.025 547.194C494.581 543.084 487.595 538.192 481.186 532.602V532.602Z" stroke="#263238" stroke-width="1.52" stroke-miterlimit="10"/>
<path d="M481.186 532.602C466.396 538.576 460.438 547.802 458.158 553.609C437.653 542.969 397.905 527.343 368.736 511.262C333.047 491.502 325.112 457.97 314.244 450.462C303.376 442.953 280.516 458.578 258.004 455.098C235.493 451.617 227.68 422.767 227.68 422.767C227.68 422.767 248.748 413.647 260.908 405.53C273.068 397.414 301.112 357.316 343.2 377.502C366.441 388.643 370.074 413.982 388.481 428.954C411.281 447.482 433.534 471.362 449.6 496.183C458.785 509.426 469.375 521.637 481.186 532.602Z" fill="#263238"/>
<path d="M370.044 403.737C370.044 403.737 358.659 380.602 340.404 376.118" stroke="white" stroke-width="1.52" stroke-linecap="round" stroke-linejoin="round"/>
<path d="M310.369 357.681C297.813 354.945 284.027 368.822 278.221 366.223C273.904 364.293 266.805 375.723 266.805 375.723C255.121 377.41 243.306 378.006 231.511 377.502C214.593 376.422 206.583 379.721 200.594 388.765L192.234 410.911C192.234 410.911 214.289 430.671 237.834 419.165C261.379 407.658 292.661 372.942 314.214 373.063" stroke="#263238" stroke-width="1.52" stroke-linecap="round" stroke-linejoin="round"/>
<path d="M485.639 569.766C485.639 569.766 506.251 571.454 501.417 546.83" stroke="#263238" stroke-width="1.52" stroke-miterlimit="10"/>
<path d="M582.768 531.614C581.248 534.654 562.354 550.736 546.075 564.796C546.075 564.583 550.635 555.995 552.52 552.332C556.852 544.246 568.039 522.069 589.334 519.15C592.359 520.974 582.768 531.614 582.768 531.614Z" fill="#263238"/>
<path d="M574.666 514.302C553.128 518.588 548.234 546.222 540.588 557.971C532.942 569.721 511.708 585.696 511.708 585.696" stroke="#263238" stroke-width="1.52" stroke-miterlimit="10"/>
<path d="M500.095 578.643C503.606 585.058 501.949 592.506 500.095 597.172C499.186 599.49 498.056 601.714 496.72 603.814C466.229 598.798 435.738 582.413 435.738 582.413L427.88 558.093L426.618 554.202L438.459 538.257" stroke="#263238" stroke-width="1.52" stroke-miterlimit="10"/>
<path d="M500.095 597.172C499.187 599.49 498.056 601.714 496.721 603.814C466.229 598.798 435.738 582.413 435.738 582.413L427.88 558.093C431.817 563.23 439.113 570.754 450.057 573.84C464.907 578.05 492.313 582.975 500.095 597.172Z" fill="#263238"/>
<path d="M309.061 373.656L317.178 274.993L416.571 271.178L423.244 273.625" stroke="#263238" stroke-width="1.52" stroke-linecap="round" stroke-linejoin="round"/>
<path d="M501.28 557.971C501.28 557.971 514.869 560.403 525.311 551.891C535.754 543.379 552.58 524.121 552.58 524.121" stroke="#263238" stroke-width="1.52" stroke-miterlimit="10"/>
<path d="M515.113 545.72C515.113 545.72 511.829 550.66 515.113 560.57" stroke="#263238" stroke-width="1.52" stroke-linecap="round" stroke-linejoin="round"/>
<path d="M524.749 540.993C523.255 545.919 523.695 551.23 525.98 555.843" stroke="#263238" stroke-width="1.52" stroke-linecap="round" stroke-linejoin="round"/>
<path d="M536.241 534.335C536.241 534.335 533.489 542.589 536.241 549.87" stroke="#263238" stroke-width="1.52" stroke-linecap="round" stroke-linejoin="round"/>
<path d="M441.149 536.205L430.251 549.322C430.251 549.322 441.225 561.315 456.714 566.301C472.203 571.286 499.867 579.753 502.162 588.766" stroke="#263238" stroke-width="1.52" stroke-miterlimit="10"/>
</svg>
